<svg width="52" height="51" viewBox="0 0 52 51" fill="none" xmlns="http://www.w3.org/2000/svg">
<path d="M15.399 35.6709C16.0573 35.7997 16.6645 36.073 17.181 36.4695L40.432 18.243C40.2017 17.6063 40.1197 16.9177 40.2084 16.2227L15.399 35.6709ZM18.9482 39.2922L22.4429 47.8409C23.9512 51.5791 29.3265 51.3711 30.6107 47.5569L33.8366 37.8946C34.4003 36.21 35.9121 35.0417 37.6698 34.9133L47.873 34.1633C51.9151 33.8977 53.4154 28.7179 50.155 26.3459L42.5823 20.7654L18.9482 39.2922ZM41.4501 11.0413L42.089 8.4364L7.51996 35.5351L10.179 35.5547L41.4501 11.0413ZM42.7526 3.70815C42.6158 3.14121 42.3657 2.62144 42.0317 2.16921L1.24119 34.145C1.62745 34.5627 2.09992 34.9085 2.6459 35.1478L42.7526 3.70815ZM38.9394 0.385235C37.9657 0.283175 36.9318 0.518365 35.99 1.19717L27.6569 7.13097C26.2268 8.13387 24.3038 8.18053 22.8271 7.26038L14.158 1.86563C10.7527 -0.245585 6.50192 3.0359 7.71868 6.88334L10.8025 16.6255C11.3366 18.2671 10.8053 20.1102 9.452 21.2461L1.61696 27.8378C0.622601 28.6774 0.136602 29.765 0.0684814 30.8562L38.9394 0.385235Z" fill="#3C64B1"/>
</svg>
