<svg width="184" height="56" viewBox="0 0 184 56" fill="none" xmlns="http://www.w3.org/2000/svg">
<path d="M28 56C43.464 56 56 43.464 56 28C56 12.536 43.464 0 28 0C12.536 0 0 12.536 0 28C0 43.464 12.536 56 28 56Z" fill="#3C64B1"/>
<path d="M56 28C56 26.4269 55.8681 24.8848 55.6189 23.3824L42.6962 10.4598L11.0203 24.0321V45.0584L21.1056 55.1436C23.3112 55.7022 25.6208 56 28 56C43.464 56 56 43.464 56 28Z" fill="#234A95"/>
<path d="M44.9794 24.0319H11.0206V45.0581H44.9794V24.0319Z" fill="#414952"/>
<path d="M44.9794 24.0319H27.9738V45.0581H44.9794V24.0319Z" fill="#23272B"/>
<path d="M44.9794 24.0319H11.0206V29.8911H44.9794V24.0319Z" fill="white"/>
<path d="M44.9794 24.0319H27.9738V29.8911H44.9794V24.0319Z" fill="#F7F7F7"/>
<path d="M28.3281 29.8917H25.1927L27.6719 24.0321H30.8073L28.3281 29.8917Z" fill="#707789"/>
<path d="M30.8074 24.0321H27.974V29.8917H28.3282L30.8074 24.0321Z" fill="#636978"/>
<path d="M21.2419 29.8917H18.1066L20.5857 24.0321H23.7211L21.2419 29.8917Z" fill="#707789"/>
<path d="M14.1557 29.8917H11.0204L13.4995 24.0321H16.6349L14.1557 29.8917Z" fill="#707789"/>
<path d="M35.4143 29.8917H32.2789L34.7581 24.0321H37.8934L35.4143 29.8917Z" fill="#636978"/>
<path d="M42.5005 29.8917H39.3651L41.8443 24.0321H44.9796L42.5005 29.8917Z" fill="#636978"/>
<path d="M42.6989 10.4612L9.66266 18.3331L11.0209 24.0332L44.0571 16.1613L42.6989 10.4612Z" fill="white"/>
<path d="M42.6962 10.4598L27.974 13.9683V19.9918L44.0545 16.1596L42.6962 10.4598Z" fill="#F7F7F7"/>
<path d="M27.8566 20.0197L24.8067 20.7466L25.86 14.4721L28.91 13.7452L27.8566 20.0197Z" fill="#707789"/>
<path d="M27.974 13.9683V19.3209L28.91 13.7452L27.974 13.9683Z" fill="#636978"/>
<path d="M20.9635 21.6624L17.9135 22.3893L18.9668 16.1148L22.0168 15.3879L20.9635 21.6624Z" fill="#707789"/>
<path d="M14.0704 23.3052L11.0204 24.032L12.0738 17.7575L15.1237 17.0306L14.0704 23.3052Z" fill="#707789"/>
<path d="M34.7497 18.377L31.6997 19.1039L32.7531 12.8294L35.8031 12.1025L34.7497 18.377Z" fill="#636978"/>
<path d="M41.6429 16.7343L38.5928 17.4612L39.6462 11.1867L42.6961 10.4598L41.6429 16.7343Z" fill="#636978"/>
<path d="M85.748 19.648V37H82.904V25.792C82.904 25.344 82.928 24.86 82.976 24.34L77.732 34.192C77.484 34.664 77.104 34.9 76.592 34.9H76.136C75.624 34.9 75.244 34.664 74.996 34.192L69.692 24.304C69.716 24.568 69.736 24.828 69.752 25.084C69.768 25.34 69.776 25.576 69.776 25.792V37H66.932V19.648H69.368C69.512 19.648 69.636 19.652 69.74 19.66C69.844 19.668 69.936 19.688 70.016 19.72C70.104 19.752 70.18 19.804 70.244 19.876C70.316 19.948 70.384 20.044 70.448 20.164L75.644 29.8C75.78 30.056 75.904 30.32 76.016 30.592C76.136 30.864 76.252 31.144 76.364 31.432C76.476 31.136 76.592 30.852 76.712 30.58C76.832 30.3 76.96 30.032 77.096 29.776L82.22 20.164C82.284 20.044 82.352 19.948 82.424 19.876C82.496 19.804 82.572 19.752 82.652 19.72C82.74 19.688 82.836 19.668 82.94 19.66C83.044 19.652 83.168 19.648 83.312 19.648H85.748ZM94.7995 24.496C95.7115 24.496 96.5395 24.644 97.2835 24.94C98.0355 25.236 98.6755 25.656 99.2035 26.2C99.7395 26.744 100.152 27.408 100.44 28.192C100.728 28.976 100.872 29.852 100.872 30.82C100.872 31.796 100.728 32.676 100.44 33.46C100.152 34.244 99.7395 34.912 99.2035 35.464C98.6755 36.016 98.0355 36.44 97.2835 36.736C96.5395 37.032 95.7115 37.18 94.7995 37.18C93.8795 37.18 93.0435 37.032 92.2915 36.736C91.5395 36.44 90.8955 36.016 90.3595 35.464C89.8315 34.912 89.4195 34.244 89.1235 33.46C88.8355 32.676 88.6915 31.796 88.6915 30.82C88.6915 29.852 88.8355 28.976 89.1235 28.192C89.4195 27.408 89.8315 26.744 90.3595 26.2C90.8955 25.656 91.5395 25.236 92.2915 24.94C93.0435 24.644 93.8795 24.496 94.7995 24.496ZM94.7995 34.9C95.8235 34.9 96.5795 34.556 97.0675 33.868C97.5635 33.18 97.8115 32.172 97.8115 30.844C97.8115 29.516 97.5635 28.504 97.0675 27.808C96.5795 27.112 95.8235 26.764 94.7995 26.764C93.7595 26.764 92.9875 27.116 92.4835 27.82C91.9875 28.516 91.7395 29.524 91.7395 30.844C91.7395 32.164 91.9875 33.172 92.4835 33.868C92.9875 34.556 93.7595 34.9 94.7995 34.9ZM114.058 24.688L109.174 37H106.486L101.602 24.688H104.05C104.274 24.688 104.458 24.74 104.602 24.844C104.754 24.948 104.854 25.08 104.902 25.24L107.278 31.816C107.406 32.2 107.518 32.576 107.614 32.944C107.71 33.312 107.794 33.68 107.866 34.048C107.946 33.68 108.034 33.312 108.13 32.944C108.226 32.576 108.342 32.2 108.478 31.816L110.902 25.24C110.958 25.08 111.058 24.948 111.202 24.844C111.346 24.74 111.518 24.688 111.718 24.688H114.058ZM118.909 24.688V37H115.933V24.688H118.909ZM119.317 21.1C119.317 21.356 119.265 21.596 119.161 21.82C119.057 22.044 118.917 22.24 118.741 22.408C118.573 22.576 118.373 22.712 118.141 22.816C117.909 22.912 117.661 22.96 117.397 22.96C117.141 22.96 116.897 22.912 116.665 22.816C116.441 22.712 116.245 22.576 116.077 22.408C115.909 22.24 115.773 22.044 115.669 21.82C115.573 21.596 115.525 21.356 115.525 21.1C115.525 20.836 115.573 20.588 115.669 20.356C115.773 20.124 115.909 19.924 116.077 19.756C116.245 19.588 116.441 19.456 116.665 19.36C116.897 19.256 117.141 19.204 117.397 19.204C117.661 19.204 117.909 19.256 118.141 19.36C118.373 19.456 118.573 19.588 118.741 19.756C118.917 19.924 119.057 20.124 119.161 20.356C119.265 20.588 119.317 20.836 119.317 21.1ZM130.063 29.428C130.063 29.044 130.007 28.684 129.895 28.348C129.791 28.004 129.631 27.704 129.415 27.448C129.199 27.192 128.923 26.992 128.587 26.848C128.259 26.696 127.875 26.62 127.435 26.62C126.579 26.62 125.903 26.864 125.407 27.352C124.919 27.84 124.607 28.532 124.471 29.428H130.063ZM124.411 31.216C124.459 31.848 124.571 32.396 124.747 32.86C124.923 33.316 125.155 33.696 125.443 34C125.731 34.296 126.071 34.52 126.463 34.672C126.863 34.816 127.303 34.888 127.783 34.888C128.263 34.888 128.675 34.832 129.019 34.72C129.371 34.608 129.675 34.484 129.931 34.348C130.195 34.212 130.423 34.088 130.615 33.976C130.815 33.864 131.007 33.808 131.191 33.808C131.439 33.808 131.623 33.9 131.743 34.084L132.595 35.164C132.267 35.548 131.899 35.872 131.491 36.136C131.083 36.392 130.655 36.6 130.207 36.76C129.767 36.912 129.315 37.02 128.851 37.084C128.395 37.148 127.951 37.18 127.519 37.18C126.663 37.18 125.867 37.04 125.131 36.76C124.395 36.472 123.755 36.052 123.211 35.5C122.667 34.94 122.239 34.252 121.927 33.436C121.615 32.612 121.459 31.66 121.459 30.58C121.459 29.74 121.595 28.952 121.867 28.216C122.139 27.472 122.527 26.828 123.031 26.284C123.543 25.732 124.163 25.296 124.891 24.976C125.627 24.656 126.455 24.496 127.375 24.496C128.151 24.496 128.867 24.62 129.523 24.868C130.179 25.116 130.743 25.48 131.215 25.96C131.687 26.432 132.055 27.016 132.319 27.712C132.591 28.4 132.727 29.188 132.727 30.076C132.727 30.524 132.679 30.828 132.583 30.988C132.487 31.14 132.303 31.216 132.031 31.216H124.411ZM147.74 22.3H142.508V37H139.28V22.3H134.048V19.648H147.74V22.3ZM165.078 19.648L158.07 37H155.154L148.146 19.648H150.738C151.018 19.648 151.246 19.716 151.422 19.852C151.598 19.988 151.73 20.164 151.818 20.38L155.91 30.964C156.046 31.308 156.174 31.688 156.294 32.104C156.422 32.512 156.542 32.94 156.654 33.388C156.75 32.94 156.854 32.512 156.966 32.104C157.078 31.688 157.202 31.308 157.338 30.964L161.406 20.38C161.47 20.196 161.594 20.028 161.778 19.876C161.97 19.724 162.202 19.648 162.474 19.648H165.078Z" fill="white"/>
</svg>
